<?xml version="1.0" encoding="UTF-8" standalone="no"?>
<!DOCTYPE svg PUBLIC "-//W3C//DTD SVG 1.1//EN" "http://www.w3.org/Graphics/SVG/1.1/DTD/svg11.dtd">
<!-- Created with Vectornator (http://vectornator.io/) -->
<svg height="626.0pt" stroke-miterlimit="10" style="fill-rule:nonzero;clip-rule:evenodd;stroke-linecap:round;stroke-linejoin:round;" version="1.1" viewBox="0 0 626 626" width="626.0pt" xml:space="preserve" xmlns="http://www.w3.org/2000/svg" xmlns:xlink="http://www.w3.org/1999/xlink">
<defs/>
<g id="Layer-1">
<path d="M126.163 126.082L269.635 126.141C269.635 126.141 271.478 125.97 274.143 125.082C275.3 124.696 276.613 124.175 277.997 123.474C279.33 122.798 280.729 121.955 282.12 120.905C283.209 120.083 284.293 119.133 285.336 118.037C286.359 116.961 287.302 115.84 288.157 114.677C288.851 113.732 289.487 112.759 290.062 111.758C290.663 110.713 291.196 109.637 291.658 108.53C292.431 106.681 293.006 104.747 293.362 102.731C293.646 101.127 293.791 99.4715 293.789 97.7648C293.788 96.6051 293.718 95.422 293.577 94.2157C293.429 92.9462 293.202 91.651 292.892 90.3307C292.49 88.6154 291.678 86.8659 290.577 85.1057C289.496 83.379 288.138 81.642 286.616 79.9172C285.479 78.6288 284.25 77.3472 282.977 76.0816C282.128 75.2379 281.26 74.4014 280.387 73.5748C278.595 71.8801 276.781 70.2272 275.064 68.6396C273.592 67.2783 272.192 65.965 270.941 64.7149C268.889 62.6656 267.236 60.7858 266.319 59.1418C265.266 57.2529 264.328 55.2877 263.599 53.1997C262.948 51.3383 262.463 49.3792 262.208 47.2894C262.021 45.76 261.957 44.1607 262.041 42.4784C262.093 41.4597 262.198 40.4107 262.364 39.3284C262.581 37.9091 262.902 36.4325 263.338 34.8922C263.796 33.2772 264.381 31.5921 265.108 29.8294C265.832 28.0748 266.746 26.4707 267.813 25.0001C268.433 24.1456 269.105 23.3361 269.822 22.5683C270.93 21.3809 272.146 20.2934 273.442 19.2933C275.067 18.0395 276.819 16.9232 278.646 15.9202C280.237 15.0462 281.886 14.2583 283.557 13.5403C284.859 12.9808 286.175 12.4639 287.488 11.9817C289.083 11.3962 290.674 10.8622 292.232 10.3658C294.104 9.76959 295.929 9.22786 297.656 8.71702C298.7 8.40815 299.776 8.12844 300.881 7.87832C302.428 7.52814 304.03 7.23599 305.677 7.00307C306.899 6.83023 308.146 6.69001 309.413 6.58292C310.605 6.48216 311.816 6.41072 313.04 6.36903C314.185 6.33007 315.342 6.31708 316.508 6.33042C318.134 6.34902 319.779 6.41879 321.434 6.54063C323.092 6.6627 324.76 6.83705 326.431 7.06461C328.647 7.36647 330.867 7.76194 333.072 8.2532C334.885 8.65698 336.687 9.12547 338.468 9.65986C339.784 10.2935 341.053 10.9561 342.276 11.6463C344.077 12.663 345.777 13.7396 347.376 14.8723C348.337 15.5524 349.261 16.2527 350.15 16.9724C351.143 17.777 352.092 18.6057 352.995 19.4574C354.043 20.4449 355.031 21.4631 355.958 22.5103C356.996 23.6818 357.959 24.8895 358.848 26.1307C360.023 27.772 361.067 29.4718 361.983 31.2239C362.592 32.3897 363.144 33.5787 363.639 34.789C364.177 36.1037 364.578 37.4053 364.852 38.6914C365.088 39.7978 365.231 40.8927 365.287 41.9745C365.358 43.3695 365.286 44.7428 365.084 46.0908C364.853 47.6292 364.453 49.1348 363.906 50.6024C363.333 52.139 362.599 53.6339 361.727 55.0813C360.939 56.3904 360.039 57.6607 359.045 58.8877C358.158 59.9828 357.197 61.0436 356.174 62.0667C355.132 63.108 353.984 64.2578 352.769 65.4871C351.503 66.7687 350.165 68.1368 348.802 69.5585C347.695 70.7138 346.571 71.9045 345.455 73.1131C343.766 74.943 342.096 76.8138 340.532 78.6646C339.569 79.8046 338.646 80.9369 337.784 82.0474C336.617 83.5493 335.561 85.0113 334.667 86.3981C333.695 87.9033 332.913 89.3198 332.385 90.6027C331.726 92.2033 331.305 94.0204 331.111 95.944C330.926 97.774 330.947 99.7005 331.161 101.629C331.413 103.894 331.934 106.162 332.706 108.279C333.322 109.965 334.097 111.556 335.023 112.972C336.073 114.578 337.317 115.96 338.743 117.006C339.707 117.712 340.742 118.403 341.839 119.068C344.07 120.42 346.554 121.669 349.194 122.739C351.24 123.569 353.38 124.292 355.569 124.872C357.238 125.315 358.935 125.675 360.641 125.938C362.734 126.26 364.839 126.435 366.921 126.435C377.216 126.435 410.702 126.864 423.074 126.622C435.446 126.379 501.165 127.183 501.165 127.183L501.17 270.516C501.17 270.516 499.411 273.695 496.4 276.825C495.036 278.243 493.414 279.651 491.583 280.749C489.812 281.809 487.846 282.58 485.726 282.789C484.318 282.928 482.841 282.819 481.31 282.383C479.602 281.896 477.825 281.003 475.996 279.591C474.611 278.523 473.285 277.412 472.006 276.276C470.761 275.17 469.56 274.04 468.393 272.9C466.943 271.483 465.545 270.052 464.177 268.636C462.874 267.286 461.599 265.949 460.334 264.649C458.74 263.012 457.162 261.434 455.564 259.967C454.593 259.076 453.616 258.226 452.622 257.428C451.465 256.498 450.287 255.638 449.075 254.866C447.857 254.091 446.605 253.404 445.306 252.824C443.466 252.004 441.532 251.397 439.467 251.056C436.286 250.53 433.135 250.416 430.059 250.635C427.915 250.787 425.808 251.1 423.753 251.547C422.363 251.85 420.997 252.214 419.66 252.63C418.609 252.957 417.576 253.317 416.564 253.706C414.469 254.509 412.461 255.433 410.561 256.443C407.537 258.05 404.784 259.873 402.388 261.765C401.434 262.518 400.439 263.497 399.424 264.658C398.534 265.675 397.627 266.833 396.717 268.101C396.037 269.049 395.354 270.059 394.676 271.118C393.76 272.546 392.851 274.064 391.962 275.641C390.844 277.624 389.756 279.7 388.726 281.81C387.7 283.912 386.73 286.048 385.843 288.157C385.127 289.856 384.466 291.539 383.871 293.174C383.221 294.962 382.651 296.692 382.178 298.324C381.874 299.375 381.61 300.385 381.392 301.343C380.982 303.144 380.732 304.762 380.672 306.126C380.626 307.202 380.607 308.468 380.622 309.887C380.636 311.188 380.678 312.618 380.754 314.147C380.849 316.085 380.999 318.183 381.211 320.381C381.362 321.939 381.544 323.547 381.762 325.184C382.105 327.764 382.535 330.415 383.066 333.054C383.676 336.082 384.418 339.094 385.314 341.962C386.251 344.962 387.356 347.805 388.651 350.345C390.103 353.191 391.793 355.656 393.756 357.538C395.479 359.188 397.112 360.721 398.667 362.142C400.861 364.147 402.901 365.929 404.818 367.507C407.38 369.615 409.724 371.356 411.928 372.773C414.527 374.443 416.931 375.662 419.268 376.496C420.645 376.988 422.714 377.257 425.226 377.269C427.054 377.279 429.118 377.152 431.32 376.877C432.771 376.696 434.282 376.45 435.826 376.137C438.278 375.639 440.814 374.969 443.325 374.113C446.226 373.124 449.094 371.886 451.759 370.376C455.173 368.442 458.254 366.062 460.647 363.19C462.538 360.92 464.751 358.539 467.157 356.289C469.887 353.735 472.866 351.349 475.904 349.484C477.335 348.607 478.778 347.844 480.215 347.234C481.76 346.577 483.298 346.097 484.804 345.838C486.613 345.527 488.375 345.535 490.05 345.942C492.792 346.608 495.297 348.341 497.382 351.488C498.353 352.953 499.232 354.724 500.001 356.836C500.558 358.364 500.903 359.935 501.115 361.532C501.512 364.517 501.427 370.625 501.427 370.625C501.427 370.625 501.419 373.516 501.488 374.936C503.383 414.166 499.854 501.555 499.854 501.555L364.974 501.291L361.186 501.283C361.186 501.283 359.275 501.687 356.443 502.622C355.092 503.068 353.533 503.635 351.872 504.336C350.16 505.059 348.341 505.925 346.531 506.949C344.65 508.012 342.78 509.247 341.051 510.669C339.9 511.616 338.812 512.646 337.826 513.764C336.959 514.746 336.171 515.796 335.487 516.918C334.476 518.578 333.694 520.394 333.226 522.378C332.929 523.638 332.759 524.965 332.737 526.362C332.714 527.844 332.858 529.405 333.195 531.049C333.468 532.382 333.869 533.77 334.41 535.213C335.07 536.974 335.754 538.614 336.456 540.147C337.026 541.393 337.609 542.567 338.201 543.676C338.783 544.768 339.375 545.796 339.973 546.768C340.602 547.79 341.239 548.749 341.88 549.652C342.551 550.598 343.227 551.483 343.906 552.315C345.375 554.119 346.853 555.676 348.307 557.069C349.399 558.115 350.477 559.069 351.527 559.965C352.658 560.93 353.757 561.829 354.806 562.704C355.806 563.539 356.761 564.353 357.655 565.183C358.857 566.3 359.95 567.448 360.896 568.718C361.967 570.156 362.851 571.752 363.492 573.639C363.919 574.894 364.271 575.949 364.554 576.867C365.297 579.273 365.561 580.736 365.427 582.372C365.298 583.949 364.799 585.687 364.001 588.587C363.712 589.636 363.384 590.838 363.02 592.239C362.396 594.639 360.174 597.751 357.347 600.891C356.141 602.231 354.824 603.577 353.474 604.874C352.652 605.664 351.818 606.436 350.989 607.178C350.058 608.012 349.133 608.808 348.24 609.549C347.148 610.455 346.104 611.279 345.152 611.989C343.468 613.245 341.462 614.346 339.206 615.293C337.717 615.918 336.12 616.476 334.436 616.966C332.693 617.474 328.949 618.274 328.949 618.274C328.949 618.274 326.476 618.712 325.203 618.887C323.01 619.189 320.75 619.403 318.453 619.531C316.902 619.618 315.335 619.665 313.761 619.673C312.31 619.681 310.852 619.655 309.397 619.596C307.584 619.522 305.773 619.396 303.98 619.219C301.164 618.942 298.39 618.537 295.715 618.006C293.804 617.627 291.944 617.183 290.154 616.675C288.503 616.207 286.912 615.683 285.398 615.106C283.969 614.56 282.603 613.979 281.301 613.362C279.633 612.573 278.07 611.727 276.611 610.829C274.511 609.537 272.629 608.136 270.964 606.641C269.426 605.26 268.075 603.798 266.91 602.265C265.763 600.756 264.798 599.179 264.015 597.543C263.182 595.802 262.555 593.996 262.136 592.135C261.854 590.882 261.666 589.605 261.573 588.307C261.396 585.856 261.556 583.331 262.054 580.754C262.45 578.709 263.119 576.802 263.993 575C264.822 573.294 265.835 571.683 266.976 570.14C267.697 569.164 268.47 568.215 269.28 567.286C270.879 565.451 272.623 563.695 274.399 561.965C275.683 560.714 276.984 559.476 278.261 558.231C279.261 557.256 280.246 556.277 281.196 555.284C282.58 553.838 283.889 552.362 285.061 550.827C286.094 549.475 287.02 548.076 287.798 546.611C289.09 544.178 290.281 541.438 291.253 538.555C291.758 537.058 292.204 535.522 292.574 533.971C292.846 532.832 293.077 531.684 293.261 530.538C293.473 529.213 293.622 527.89 293.698 526.582C293.768 525.391 293.776 524.213 293.716 523.059C293.656 521.904 293.528 520.773 293.324 519.675C293.095 518.447 292.772 517.261 292.342 516.132C291.871 514.896 291.274 513.73 290.535 512.651C289.216 510.725 287.445 509.081 285.145 507.832C283.694 507.044 282.232 506.357 280.771 505.759C279.016 505.04 277.261 504.448 275.525 503.962C274.33 503.628 273.144 503.343 271.974 503.101C270.028 502.699 268.123 502.415 266.287 502.216C264.2 501.99 262.201 501.873 260.332 501.818C256.76 501.712 253.661 501.829 251.319 501.829C244.3 501.829 123.953 500.271 123.953 500.271L126.898 359.925C126.898 359.925 127.511 358.064 128.787 355.714C129.57 354.271 130.603 352.644 131.897 351.149C133.345 349.477 135.119 347.972 137.236 347.078C138.698 346.46 140.324 346.134 142.118 346.246C143.905 346.357 145.86 346.902 147.987 348.027C149.598 348.879 151.308 350.063 153.119 351.642C154.346 352.711 155.512 353.735 156.623 354.714C158.674 356.521 160.543 358.179 162.279 359.702C163.846 361.078 165.304 362.344 166.69 363.512C168.264 364.838 169.745 366.038 171.185 367.126C172.436 368.072 173.656 368.934 174.88 369.722C176.266 370.615 177.657 371.414 179.103 372.135C180.216 372.69 181.362 373.198 182.564 373.667C183.683 374.104 184.85 374.506 186.084 374.88C188.122 375.498 190.342 376.037 192.828 376.525C194.948 376.94 196.836 377.221 198.547 377.37C200.52 377.542 202.256 377.538 203.839 377.363C205.734 377.154 207.409 376.699 209.006 376.007C210.062 375.549 211.084 374.987 212.112 374.323C213.255 373.586 214.406 372.723 215.622 371.738C216.206 371.265 216.804 370.764 217.423 370.235C218.347 369.446 219.317 368.596 220.355 367.685C222.132 366.125 224.107 364.388 226.384 362.479C227.735 361.345 228.974 360.134 230.111 358.859C231.302 357.524 232.382 356.119 233.362 354.659C234.804 352.512 236.031 350.247 237.082 347.913C237.637 346.681 238.143 345.43 238.605 344.167C239.194 342.558 239.713 340.93 240.173 339.298C240.525 338.051 240.842 336.803 241.13 335.559C241.567 333.673 241.937 331.798 242.258 329.956C242.731 327.249 243.098 324.615 243.419 322.129C243.701 319.939 243.947 317.865 244.196 315.955C244.548 313.251 244.629 310.164 244.453 306.855C244.338 304.715 244.116 302.483 243.789 300.2C243.478 298.031 243.073 295.817 242.575 293.595C241.941 290.762 241.158 287.917 240.231 285.136C239.532 283.037 238.752 280.976 237.892 278.984C236.964 276.834 235.943 274.765 234.834 272.818C233.767 270.946 232.617 269.188 231.388 267.58C230.218 266.049 228.602 264.174 226.56 262.23C225.218 260.953 223.692 259.646 221.987 258.387C220.723 257.454 219.361 256.548 217.904 255.7C216.798 255.056 215.637 254.447 214.421 253.884C212.74 253.106 210.955 252.418 209.068 251.858C207.939 251.522 206.772 251.232 205.57 250.996C204.658 250.816 203.726 250.668 202.773 250.553C200.803 250.317 198.746 250.227 196.604 250.314C194.187 250.412 191.85 250.732 189.602 251.233C187.03 251.807 184.573 252.617 182.24 253.6C179.333 254.826 176.618 256.321 174.113 257.965C172.894 258.766 171.724 259.602 170.606 260.458C168.882 261.78 167.282 263.153 165.813 264.524C164.63 265.628 163.532 266.731 162.524 267.807C161.237 269.18 159.942 270.473 158.647 271.678C157.229 272.997 155.81 274.21 154.404 275.304C152.683 276.644 150.979 277.805 149.313 278.764C148.088 279.469 146.884 280.065 145.71 280.543C143.425 281.473 141.251 281.954 139.251 281.918C137.715 281.89 136.282 281.557 134.979 280.889C133.425 280.092 132.056 278.818 130.921 277.014C130.059 275.644 129.331 273.969 128.759 271.965C128.416 270.764 128.102 269.478 127.815 268.128C127.567 266.963 127.34 265.75 127.131 264.502C126.788 262.453 126.495 260.309 126.246 258.129C126.077 256.652 125.929 255.159 125.798 253.667C125.619 251.625 125.474 249.585 125.358 247.595C125.149 244.002 125.033 240.568 124.981 237.564C124.938 235.071 124.938 232.875 124.966 231.129C125.018 227.793 125.168 226.101 125.297 227.131C125.765 230.875 126.163 126.082 126.163 126.082Z" fill="none" opacity="1" stroke="#000000" stroke-linecap="butt" stroke-linejoin="round" stroke-width="9.82032"/>
</g>
</svg>
