<?xml version="1.0" encoding="UTF-8" standalone="no"?>
<!DOCTYPE svg PUBLIC "-//W3C//DTD SVG 1.1//EN" "http://www.w3.org/Graphics/SVG/1.1/DTD/svg11.dtd">
<!-- Created with Vectornator (http://vectornator.io/) -->
<svg height="626.0pt" stroke-miterlimit="10" style="fill-rule:nonzero;clip-rule:evenodd;stroke-linecap:round;stroke-linejoin:round;" version="1.1" viewBox="0 0 626 626" width="626.0pt" xml:space="preserve" xmlns="http://www.w3.org/2000/svg" xmlns:xlink="http://www.w3.org/1999/xlink">
<defs/>
<g id="Layer-1">
<path d="M126.163 126.082L269.635 126.141C269.635 126.141 278.401 125.328 285.336 118.037C292.27 110.746 295.495 101.429 292.892 90.3307C290.289 79.2322 270.534 66.6974 266.319 59.1418C262.105 51.5862 259.752 42.8109 265.108 29.8294C270.464 16.848 286.208 12.1036 297.656 8.71702C309.104 5.33047 324.43 5.4486 338.468 9.65986C351.102 15.7428 359.428 24.4948 363.639 34.789C367.85 45.0832 363.66 54.58 356.174 62.0667C348.687 69.5534 335.66 82.6481 332.385 90.6027C329.11 98.5573 331.724 111.859 338.743 117.006C345.762 122.153 356.627 126.435 366.921 126.435C377.216 126.435 410.702 126.864 423.074 126.622C435.446 126.379 501.165 127.183 501.165 127.183L501.17 270.516C501.17 270.516 490.12 290.492 475.996 279.591C461.872 268.691 453.861 253.435 439.467 251.056C425.072 248.676 411.279 254.746 402.388 261.765C393.498 268.783 381.14 295.364 380.672 306.126C380.204 316.888 382.526 346.776 393.756 357.538C404.986 368.3 412.414 374.049 419.268 376.496C426.122 378.943 450.085 375.868 460.647 363.19C471.21 350.511 491.818 334.368 500.001 356.836C502.094 362.582 501.199 368.951 501.488 374.936C503.383 414.166 499.854 501.555 499.854 501.555L361.186 501.283C361.186 501.283 324.584 509.01 334.41 535.213C344.236 561.417 359.222 561.079 363.492 573.639C366.505 582.5 365.83 581.417 363.02 592.239C361.563 597.847 351.373 607.348 345.152 611.989C332.907 621.124 303.613 622.055 285.398 615.106C267.184 608.156 259.247 595.26 262.054 580.754C264.862 566.249 281.386 558.689 287.798 546.611C294.21 534.533 298.138 514.886 285.145 507.832C272.151 500.777 258.337 501.829 251.319 501.829C244.3 501.829 123.953 500.271 123.953 500.271L126.898 359.925C126.898 359.925 134.87 335.733 153.119 351.642C171.368 367.551 176.032 373.232 192.828 376.525C209.624 379.818 211.879 374.644 226.384 362.479C240.89 350.313 242.475 329.173 244.196 315.955C245.916 302.737 241.176 280.386 231.388 267.58C226.657 261.389 214.644 249.583 196.604 250.314C181.626 250.92 169.776 260.072 162.524 267.807C148.486 282.781 133.438 288.342 128.759 271.965C124.08 255.588 124.829 223.388 125.297 227.131C125.765 230.875 126.163 126.082 126.163 126.082Z" fill="none" opacity="1" stroke="#000000" stroke-linecap="butt" stroke-linejoin="round" stroke-width="9.82032"/>
</g>
</svg>
